# xmcd
#
# Track frame offsets:
#	150
#	13188
#	31271
#	52083
#	68694
#	88289
#	109317
#	126363
#	138773
#	154885
#	175389
#	200379
#
# Disc length: 2893 seconds
#
# Revision: 0
# Processed by: cddbd v1.5.2PL0 Copyright (c) Steve Scherf et al.
# Submitted via: EasyCDDAExtractor 10.2.0.1
#
DISCID=ab0b4b0c
DTITLE=Paulo e Roberto - O pão da vida
DYEAR=2007
DGENRE=Gospel
TTITLE0=Jesus no seu lar
TTITLE1=Fogo da vitória
TTITLE2=Minha gratidão
TTITLE3=Foi assim
TTITLE4=Novo homem
TTITLE5=Minha volta
TTITLE6=Homenagem ao caminhoneiro
TTITLE7=Mãezinha querida
TTITLE8=Homenagem aos aniversariantes
TTITLE9=Gosto da vitória
TTITLE10=Foi ele
TTITLE11=Pão da vida
EXTD=
EXTT0=
EXTT1=
EXTT2=
EXTT3=
EXTT4=
EXTT5=
EXTT6=
EXTT7=
EXTT8=
EXTT9=
EXTT10=
EXTT11=
PLAYORDER=
